<svg id="Capa_1" enable-background="new 0 0 512 512" height="512" viewBox="0 0 512 512" width="512" xmlns="http://www.w3.org/2000/svg"><g><g><path d="m388.129 264.258c-50.085 0-90.839 40.754-90.839 90.839s40.754 90.839 90.839 90.839 90.839-40.754 90.839-90.839-40.754-90.839-90.839-90.839zm0 165.161c-40.985 0-74.323-33.346-74.323-74.323s33.338-74.323 74.323-74.323 74.323 33.346 74.323 74.323-33.338 74.323-74.323 74.323z"/><path d="m512 115.613v-49.548h-24.774v-8.258c0-10.752-6.929-19.836-16.516-23.255v-18.036h-16.516v18.036c-9.588 3.419-16.516 12.503-16.516 23.255v8.258h-24.774v49.548h41.29v134.879c-5.26-3.336-10.76-6.334-16.516-8.853v-70.169l-19.671-39.341h-109.304l-11.413 22.825-11.413-22.825h-109.303l-19.671 39.341v69.962l11.413 22.825h-44.445v-133.64c44.123-5.401 74.323-24.626 74.323-48.037 0-20.868-23.296-37.921-58.219-45.411-2.107-20.81-19.523-37.169-40.878-37.169s-38.772 16.359-40.878 37.17c-34.923 7.49-58.219 24.543-58.219 45.411 0 23.412 30.2 42.636 74.323 48.037v133.64h-74.323v49.548h16.516v115.613h57.806v5.888l-40.035 64.058 13.997 8.754 38.871-62.183h23.882l38.862 62.183 13.997-8.754-40.027-64.058v-5.888h66.296c17.879 23.717 43.958 40.91 74.091 47.054v35.527h49.548v-33.032h74.323c27.904 0 53.595-9.381 74.323-25.005v58.037h49.55v-156.903c0-36.558-16.012-69.376-41.29-92.069v-147.415zm-123.871 115.613h-66.065v-16.516h16.516v-33.032h82.581v54.156c-10.537-2.924-21.578-4.608-33.032-4.608zm-132.129-49.549v33.032h16.516v16.516h-99.097v-49.548zm41.29 0h24.774v16.516h-49.548v-16.516zm-8.258 49.549v-16.516h16.516v16.516zm118.768-82.581 8.258 16.516h-77.477-27.929l8.258-16.516zm-132.129 0 8.258 16.516h-27.929-77.477l8.258-16.516zm-97.148 99.097h48.97c-8.093 4.658-15.583 10.215-22.396 16.516h-18.316zm11.644 33.032c-3.939 5.219-7.531 10.702-10.612 16.516h-55.684v-16.516zm-82.812 148.645h-16.516v-330.322h16.516zm-8.258-412.903c11.115 0 20.43 7.407 23.511 17.862-7.498-.851-15.335-1.346-23.511-1.346-8.233 0-16.12.504-23.676 1.363 3.006-10.29 12.42-17.879 23.676-17.879zm-82.581 66.065c0-15.591 35.311-33.032 82.581-33.032s82.581 17.441 82.581 33.032c0 11.933-21.884 26.541-57.806 31.381v-14.865c0-9.109-7.407-16.516-16.516-16.516h-16.517c-9.109 0-16.516 7.407-16.516 16.516v14.865c-35.923-4.84-57.807-19.448-57.807-31.381zm0 198.193h57.806v16.516h-57.806zm16.516 132.129v-99.097h41.29v99.097zm90.839 0v-99.097h48.516c-4.591 12.94-7.226 26.797-7.226 41.29 0 20.876 5.244 40.531 14.402 57.806h-55.692zm57.806-57.806c0-44.775 27.574-83.192 66.618-99.278-30.332 22.602-50.102 58.632-50.102 99.278s19.77 76.676 50.102 99.278c-39.044-16.086-66.618-54.503-66.618-99.278zm115.613 140.387h-16.516v-16.937c2.742.182 5.467.421 8.258.421h8.258zm24.775-33.032c-59.194 0-107.355-48.161-107.355-107.355s48.161-107.355 107.355-107.355h4.525c-37.186 21.397-62.332 61.457-62.332 107.355s25.146 85.958 62.332 107.355zm173.419 33.032h-16.516v-56.452c6.301-6.813 11.859-14.303 16.516-22.396zm0-140.387c0 59.194-48.161 107.355-107.355 107.355s-107.355-48.161-107.355-107.355 48.161-107.355 107.355-107.355 107.355 48.161 107.355 107.355zm-41.29-297.291c0-4.55 3.7-8.258 8.258-8.258s8.258 3.708 8.258 8.258v8.258h-16.516zm-24.775 24.775h66.065v16.516h-66.065z"/></g></g></svg>